<svg width="30" height="29" viewBox="0 0 30 29" fill="none" xmlns="http://www.w3.org/2000/svg">
<rect x="0.5" y="0.5" width="29" height="28" rx="1.5" stroke="white"/>
<path fill-rule="evenodd" clip-rule="evenodd" d="M3.75 4.53125C3.23223 4.53125 2.8125 4.93699 2.8125 5.4375V7.25C2.8125 7.75051 3.23223 8.15625 3.75 8.15625H5.625C6.14277 8.15625 6.5625 7.75051 6.5625 7.25V5.4375C6.5625 4.93699 6.14277 4.53125 5.625 4.53125H3.75ZM5.625 5.4375H3.75V7.25H5.625V5.4375Z" fill="white"/>
<path d="M9.375 6.34375C9.375 5.84324 9.79473 5.4375 10.3125 5.4375H27.1875C27.7053 5.4375 28.125 5.84324 28.125 6.34375C28.125 6.84426 27.7053 7.25 27.1875 7.25H10.3125C9.79473 7.25 9.375 6.84426 9.375 6.34375Z" fill="white"/>
<path d="M10.3125 12.6875C9.79473 12.6875 9.375 13.0932 9.375 13.5938C9.375 14.0943 9.79473 14.5 10.3125 14.5H27.1875C27.7053 14.5 28.125 14.0943 28.125 13.5938C28.125 13.0932 27.7053 12.6875 27.1875 12.6875H10.3125Z" fill="white"/>
<path d="M10.3125 19.9375C9.79473 19.9375 9.375 20.3432 9.375 20.8438C9.375 21.3443 9.79473 21.75 10.3125 21.75H27.1875C27.7053 21.75 28.125 21.3443 28.125 20.8438C28.125 20.3432 27.7053 19.9375 27.1875 19.9375H10.3125Z" fill="white"/>
<path fill-rule="evenodd" clip-rule="evenodd" d="M2.8125 12.6875C2.8125 12.187 3.23223 11.7812 3.75 11.7812H5.625C6.14277 11.7812 6.5625 12.187 6.5625 12.6875V14.5C6.5625 15.0005 6.14277 15.4062 5.625 15.4062H3.75C3.23223 15.4062 2.8125 15.0005 2.8125 14.5V12.6875ZM3.75 12.6875H5.625V14.5H3.75V12.6875Z" fill="white"/>
<path fill-rule="evenodd" clip-rule="evenodd" d="M3.75 19.0312C3.23223 19.0312 2.8125 19.437 2.8125 19.9375V21.75C2.8125 22.2505 3.23223 22.6562 3.75 22.6562H5.625C6.14277 22.6562 6.5625 22.2505 6.5625 21.75V19.9375C6.5625 19.437 6.14277 19.0312 5.625 19.0312H3.75ZM5.625 19.9375H3.75V21.75H5.625V19.9375Z" fill="white"/>
</svg>
